# vtk DataFile Version 3.0
Structured hexahedral tube mesh
ASCII
DATASET STRUCTURED_GRID
DIMENSIONS 5 5 21
POINTS 525 float
-1.414213562373095 -1.414213562373095 -7.0
-0.8944271909999159 -1.7888543819998317 -7.0
0.0 -2.0 -7.0
0.8944271909999159 -1.7888543819998317 -7.0
1.414213562373095 -1.414213562373095 -7.0
-1.7888543819998317 -0.8944271909999159 -7.0
-1.0 -1.0 -7.0
0.0 -1.0 -7.0
1.0 -1.0 -7.0
1.7888543819998317 -0.8944271909999159 -7.0
-2.0 0.0 -7.0
-1.0 0.0 -7.0
0.0 0.0 -7.0
1.0 0.0 -7.0
2.0 0.0 -7.0
-1.7888543819998317 0.8944271909999159 -7.0
-1.0 1.0 -7.0
0.0 1.0 -7.0
1.0 1.0 -7.0
1.7888543819998317 0.8944271909999159 -7.0
-1.414213562373095 1.414213562373095 -7.0
-0.8944271909999159 1.7888543819998317 -7.0
0.0 2.0 -7.0
0.8944271909999159 1.7888543819998317 -7.0
1.414213562373095 1.414213562373095 -7.0
-1.43151769698439 -1.43151769698439 -6.3
-0.9053712866618848 -1.8107425733237696 -6.3
0.0 -2.024471741852423 -6.3
0.9053712866618848 -1.8107425733237696 -6.3
1.43151769698439 -1.43151769698439 -6.3
-1.8107425733237696 -0.9053712866618848 -6.3
-1.0122358709262116 -1.0122358709262116 -6.3
0.0 -1.0122358709262116 -6.3
1.0122358709262116 -1.0122358709262116 -6.3
1.8107425733237696 -0.9053712866618848 -6.3
-2.024471741852423 0.0 -6.3
-1.0122358709262116 0.0 -6.3
0.0 0.0 -6.3
1.0122358709262116 0.0 -6.3
2.024471741852423 0.0 -6.3
-1.8107425733237696 0.9053712866618848 -6.3
-1.0122358709262116 1.0122358709262116 -6.3
0.0 1.0122358709262116 -6.3
1.0122358709262116 1.0122358709262116 -6.3
1.8107425733237696 0.9053712866618848 -6.3
-1.43151769698439 1.43151769698439 -6.3
-0.9053712866618848 1.8107425733237696 -6.3
0.0 2.024471741852423 -6.3
0.9053712866618848 1.8107425733237696 -6.3
1.43151769698439 1.43151769698439 -6.3
-1.4817362515575265 -1.4817362515575265 -5.6
-0.9371322893124001 -1.8742645786248002 -5.6
0.0 -2.0954915028125263 -5.6
0.9371322893124001 -1.8742645786248002 -5.6
1.4817362515575265 -1.4817362515575265 -5.6
-1.8742645786248002 -0.9371322893124001 -5.6
-1.0477457514062631 -1.0477457514062631 -5.6
0.0 -1.0477457514062631 -5.6
1.0477457514062631 -1.0477457514062631 -5.6
1.8742645786248002 -0.9371322893124001 -5.6
-2.0954915028125263 0.0 -5.6
-1.0477457514062631 0.0 -5.6
0.0 0.0 -5.6
1.0477457514062631 0.0 -5.6
2.0954915028125263 0.0 -5.6
-1.8742645786248002 0.9371322893124001 -5.6
-1.0477457514062631 1.0477457514062631 -5.6
0.0 1.0477457514062631 -5.6
1.0477457514062631 1.0477457514062631 -5.6
1.8742645786248002 0.9371322893124001 -5.6
-1.4817362515575265 1.4817362515575265 -5.6
-0.9371322893124001 1.8742645786248002 -5.6
0.0 2.0954915028125263 -5.6
0.9371322893124001 1.8742645786248002 -5.6
1.4817362515575265 1.4817362515575265 -5.6
-1.559953484077642 -1.559953484077642 -4.9
-0.9866012107201114 -1.9732024214402228 -4.9
0.0 -2.2061073738537633 -4.9
0.9866012107201114 -1.9732024214402228 -4.9
1.559953484077642 -1.559953484077642 -4.9
-1.9732024214402228 -0.9866012107201114 -4.9
-1.1030536869268817 -1.1030536869268817 -4.9
0.0 -1.1030536869268817 -4.9
1.1030536869268817 -1.1030536869268817 -4.9
1.9732024214402228 -0.9866012107201114 -4.9
-2.2061073738537633 0.0 -4.9
-1.1030536869268817 0.0 -4.9
0.0 0.0 -4.9
1.1030536869268817 0.0 -4.9
2.2061073738537633 0.0 -4.9
-1.9732024214402228 0.9866012107201114 -4.9
-1.1030536869268817 1.1030536869268817 -4.9
0.0 1.1030536869268817 -4.9
1.1030536869268817 1.1030536869268817 -4.9
1.9732024214402228 0.9866012107201114 -4.9
-1.559953484077642 1.559953484077642 -4.9
-0.9866012107201114 1.9732024214402228 -4.9
0.0 2.2061073738537633 -4.9
0.9866012107201114 1.9732024214402228 -4.9
1.559953484077642 1.559953484077642 -4.9
-1.6585129468541633 -1.6585129468541633 -4.2
-1.0489356881873895 -2.097871376374779 -4.2
0.0 -2.3454915028125263 -4.2
1.0489356881873895 -2.097871376374779 -4.2
1.6585129468541633 -1.6585129468541633 -4.2
-2.097871376374779 -1.0489356881873895 -4.2
-1.1727457514062631 -1.1727457514062631 -4.2
0.0 -1.1727457514062631 -4.2
1.1727457514062631 -1.1727457514062631 -4.2
2.097871376374779 -1.0489356881873895 -4.2
-2.3454915028125263 0.0 -4.2
-1.1727457514062631 0.0 -4.2
0.0 0.0 -4.2
1.1727457514062631 0.0 -4.2
2.3454915028125263 0.0 -4.2
-2.097871376374779 1.0489356881873895 -4.2
-1.1727457514062631 1.1727457514062631 -4.2
0.0 1.1727457514062631 -4.2
1.1727457514062631 1.1727457514062631 -4.2
2.097871376374779 1.0489356881873895 -4.2
-1.6585129468541633 1.6585129468541633 -4.2
-1.0489356881873895 2.097871376374779 -4.2
0.0 2.3454915028125263 -4.2
1.0489356881873895 2.097871376374779 -4.2
1.6585129468541633 1.6585129468541633 -4.2
-1.7677669529663687 -1.7677669529663687 -3.5
-1.118033988749895 -2.23606797749979 -3.5
0.0 -2.5 -3.5
1.118033988749895 -2.23606797749979 -3.5
1.7677669529663687 -1.7677669529663687 -3.5
-2.23606797749979 -1.118033988749895 -3.5
-1.25 -1.25 -3.5
0.0 -1.25 -3.5
1.25 -1.25 -3.5
2.23606797749979 -1.118033988749895 -3.5
-2.5 0.0 -3.5
-1.25 0.0 -3.5
0.0 0.0 -3.5
1.25 0.0 -3.5
2.5 0.0 -3.5
-2.23606797749979 1.118033988749895 -3.5
-1.25 1.25 -3.5
0.0 1.25 -3.5
1.25 1.25 -3.5
2.23606797749979 1.118033988749895 -3.5
-1.7677669529663687 1.7677669529663687 -3.5
-1.118033988749895 2.23606797749979 -3.5
0.0 2.5 -3.5
1.118033988749895 2.23606797749979 -3.5
1.7677669529663687 1.7677669529663687 -3.5
-1.877020959078574 -1.877020959078574 -2.8000000000000007
-1.1871322893124001 -2.3742645786248002 -2.8000000000000007
0.0 -2.6545084971874737 -2.8000000000000007
1.1871322893124001 -2.3742645786248002 -2.8000000000000007
1.877020959078574 -1.877020959078574 -2.8000000000000007
-2.3742645786248002 -1.1871322893124001 -2.8000000000000007
-1.3272542485937369 -1.3272542485937369 -2.8000000000000007
0.0 -1.3272542485937369 -2.8000000000000007
1.3272542485937369 -1.3272542485937369 -2.8000000000000007
2.3742645786248002 -1.1871322893124001 -2.8000000000000007
-2.6545084971874737 0.0 -2.8000000000000007
-1.3272542485937369 0.0 -2.8000000000000007
0.0 0.0 -2.8000000000000007
1.3272542485937369 0.0 -2.8000000000000007
2.6545084971874737 0.0 -2.8000000000000007
-2.3742645786248002 1.1871322893124001 -2.8000000000000007
-1.3272542485937369 1.3272542485937369 -2.8000000000000007
0.0 1.3272542485937369 -2.8000000000000007
1.3272542485937369 1.3272542485937369 -2.8000000000000007
2.3742645786248002 1.1871322893124001 -2.8000000000000007
-1.877020959078574 1.877020959078574 -2.8000000000000007
-1.1871322893124001 2.3742645786248002 -2.8000000000000007
0.0 2.6545084971874737 -2.8000000000000007
1.1871322893124001 2.3742645786248002 -2.8000000000000007
1.877020959078574 1.877020959078574 -2.8000000000000007
-1.9755804218550954 -1.9755804218550954 -2.1000000000000005
-1.2494667667796782 -2.4989335335593563 -2.1000000000000005
0.0 -2.7938926261462367 -2.1000000000000005
1.2494667667796782 -2.4989335335593563 -2.1000000000000005
1.9755804218550954 -1.9755804218550954 -2.1000000000000005
-2.4989335335593563 -1.2494667667796782 -2.1000000000000005
-1.3969463130731183 -1.3969463130731183 -2.1000000000000005
0.0 -1.3969463130731183 -2.1000000000000005
1.3969463130731183 -1.3969463130731183 -2.1000000000000005
2.4989335335593563 -1.2494667667796782 -2.1000000000000005
-2.7938926261462367 0.0 -2.1000000000000005
-1.3969463130731183 0.0 -2.1000000000000005
0.0 0.0 -2.1000000000000005
1.3969463130731183 0.0 -2.1000000000000005
2.7938926261462367 0.0 -2.1000000000000005
-2.4989335335593563 1.2494667667796782 -2.1000000000000005
-1.3969463130731183 1.3969463130731183 -2.1000000000000005
0.0 1.3969463130731183 -2.1000000000000005
1.3969463130731183 1.3969463130731183 -2.1000000000000005
2.4989335335593563 1.2494667667796782 -2.1000000000000005
-1.9755804218550954 1.9755804218550954 -2.1000000000000005
-1.2494667667796782 2.4989335335593563 -2.1000000000000005
0.0 2.7938926261462367 -2.1000000000000005
1.2494667667796782 2.4989335335593563 -2.1000000000000005
1.9755804218550954 1.9755804218550954 -2.1000000000000005
-2.053797654375211 -2.053797654375211 -1.4000000000000004
-1.2989356881873895 -2.597871376374779 -1.4000000000000004
0.0 -2.9045084971874737 -1.4000000000000004
1.2989356881873895 -2.597871376374779 -1.4000000000000004
2.053797654375211 -2.053797654375211 -1.4000000000000004
-2.597871376374779 -1.2989356881873895 -1.4000000000000004
-1.4522542485937369 -1.4522542485937369 -1.4000000000000004
0.0 -1.4522542485937369 -1.4000000000000004
1.4522542485937369 -1.4522542485937369 -1.4000000000000004
2.597871376374779 -1.2989356881873895 -1.4000000000000004
-2.9045084971874737 0.0 -1.4000000000000004
-1.4522542485937369 0.0 -1.4000000000000004
0.0 0.0 -1.4000000000000004
1.4522542485937369 0.0 -1.4000000000000004
2.9045084971874737 0.0 -1.4000000000000004
-2.597871376374779 1.2989356881873895 -1.4000000000000004
-1.4522542485937369 1.4522542485937369 -1.4000000000000004
0.0 1.4522542485937369 -1.4000000000000004
1.4522542485937369 1.4522542485937369 -1.4000000000000004
2.597871376374779 1.2989356881873895 -1.4000000000000004
-2.053797654375211 2.053797654375211 -1.4000000000000004
-1.2989356881873895 2.597871376374779 -1.4000000000000004
0.0 2.9045084971874737 -1.4000000000000004
1.2989356881873895 2.597871376374779 -1.4000000000000004
2.053797654375211 2.053797654375211 -1.4000000000000004
-2.104016208948347 -2.104016208948347 -0.7000000000000002
-1.3306966908379048 -2.6613933816758095 -0.7000000000000002
0.0 -2.975528258147577 -0.7000000000000002
1.3306966908379048 -2.6613933816758095 -0.7000000000000002
2.104016208948347 -2.104016208948347 -0.7000000000000002
-2.6613933816758095 -1.3306966908379048 -0.7000000000000002
-1.4877641290737882 -1.4877641290737882 -0.7000000000000002
0.0 -1.4877641290737884 -0.7000000000000002
1.4877641290737882 -1.4877641290737882 -0.7000000000000002
2.6613933816758095 -1.3306966908379048 -0.7000000000000002
-2.975528258147577 0.0 -0.7000000000000002
-1.4877641290737884 0.0 -0.7000000000000002
0.0 0.0 -0.7000000000000002
1.4877641290737884 0.0 -0.7000000000000002
2.975528258147577 0.0 -0.7000000000000002
-2.6613933816758095 1.3306966908379048 -0.7000000000000002
-1.4877641290737882 1.4877641290737882 -0.7000000000000002
0.0 1.4877641290737884 -0.7000000000000002
1.4877641290737882 1.4877641290737882 -0.7000000000000002
2.6613933816758095 1.3306966908379048 -0.7000000000000002
-2.104016208948347 2.104016208948347 -0.7000000000000002
-1.3306966908379048 2.6613933816758095 -0.7000000000000002
0.0 2.975528258147577 -0.7000000000000002
1.3306966908379048 2.6613933816758095 -0.7000000000000002
2.104016208948347 2.104016208948347 -0.7000000000000002
-2.1213203435596424 -2.1213203435596424 0.0
-1.3416407864998738 -2.6832815729997477 0.0
0.0 -3.0 0.0
1.3416407864998738 -2.6832815729997477 0.0
2.1213203435596424 -2.1213203435596424 0.0
-2.6832815729997477 -1.3416407864998738 0.0
-1.5 -1.5 0.0
0.0 -1.5 0.0
1.5 -1.5 0.0
2.6832815729997477 -1.3416407864998738 0.0
-3.0 0.0 0.0
-1.5 0.0 0.0
0.0 0.0 0.0
1.5 0.0 0.0
3.0 0.0 0.0
-2.6832815729997477 1.3416407864998738 0.0
-1.5 1.5 0.0
0.0 1.5 0.0
1.5 1.5 0.0
2.6832815729997477 1.3416407864998738 0.0
-2.1213203435596424 2.1213203435596424 0.0
-1.3416407864998738 2.6832815729997477 0.0
0.0 3.0 0.0
1.3416407864998738 2.6832815729997477 0.0
2.1213203435596424 2.1213203435596424 0.0
-2.104016208948347 -2.104016208948347 0.6999999999999993
-1.3306966908379048 -2.6613933816758095 0.6999999999999993
0.0 -2.975528258147577 0.6999999999999993
1.3306966908379048 -2.6613933816758095 0.6999999999999993
2.104016208948347 -2.104016208948347 0.6999999999999993
-2.6613933816758095 -1.3306966908379048 0.6999999999999993
-1.4877641290737882 -1.4877641290737882 0.6999999999999993
0.0 -1.4877641290737884 0.6999999999999993
1.4877641290737882 -1.4877641290737882 0.6999999999999993
2.6613933816758095 -1.3306966908379048 0.6999999999999993
-2.975528258147577 0.0 0.6999999999999993
-1.4877641290737884 0.0 0.6999999999999993
0.0 0.0 0.6999999999999993
1.4877641290737884 0.0 0.6999999999999993
2.975528258147577 0.0 0.6999999999999993
-2.6613933816758095 1.3306966908379048 0.6999999999999993
-1.4877641290737882 1.4877641290737882 0.6999999999999993
0.0 1.4877641290737884 0.6999999999999993
1.4877641290737882 1.4877641290737882 0.6999999999999993
2.6613933816758095 1.3306966908379048 0.6999999999999993
-2.104016208948347 2.104016208948347 0.6999999999999993
-1.3306966908379048 2.6613933816758095 0.6999999999999993
0.0 2.975528258147577 0.6999999999999993
1.3306966908379048 2.6613933816758095 0.6999999999999993
2.104016208948347 2.104016208948347 0.6999999999999993
-2.0537976543752112 -2.0537976543752112 1.3999999999999986
-1.2989356881873897 -2.5978713763747794 1.3999999999999986
0.0 -2.904508497187474 1.3999999999999986
1.2989356881873897 -2.5978713763747794 1.3999999999999986
2.0537976543752112 -2.0537976543752112 1.3999999999999986
-2.5978713763747794 -1.2989356881873897 1.3999999999999986
-1.452254248593737 -1.452254248593737 1.3999999999999986
0.0 -1.452254248593737 1.3999999999999986
1.452254248593737 -1.452254248593737 1.3999999999999986
2.5978713763747794 -1.2989356881873897 1.3999999999999986
-2.904508497187474 0.0 1.3999999999999986
-1.452254248593737 0.0 1.3999999999999986
0.0 0.0 1.3999999999999986
1.452254248593737 0.0 1.3999999999999986
2.904508497187474 0.0 1.3999999999999986
-2.5978713763747794 1.2989356881873897 1.3999999999999986
-1.452254248593737 1.452254248593737 1.3999999999999986
0.0 1.452254248593737 1.3999999999999986
1.452254248593737 1.452254248593737 1.3999999999999986
2.5978713763747794 1.2989356881873897 1.3999999999999986
-2.0537976543752112 2.0537976543752112 1.3999999999999986
-1.2989356881873897 2.5978713763747794 1.3999999999999986
0.0 2.904508497187474 1.3999999999999986
1.2989356881873897 2.5978713763747794 1.3999999999999986
2.0537976543752112 2.0537976543752112 1.3999999999999986
-1.9755804218550954 -1.9755804218550954 2.0999999999999996
-1.2494667667796782 -2.4989335335593563 2.0999999999999996
0.0 -2.7938926261462367 2.0999999999999996
1.2494667667796782 -2.4989335335593563 2.0999999999999996
1.9755804218550954 -1.9755804218550954 2.0999999999999996
-2.4989335335593563 -1.2494667667796782 2.0999999999999996
-1.3969463130731183 -1.3969463130731183 2.0999999999999996
0.0 -1.3969463130731183 2.0999999999999996
1.3969463130731183 -1.3969463130731183 2.0999999999999996
2.4989335335593563 -1.2494667667796782 2.0999999999999996
-2.7938926261462367 0.0 2.0999999999999996
-1.3969463130731183 0.0 2.0999999999999996
0.0 0.0 2.0999999999999996
1.3969463130731183 0.0 2.0999999999999996
2.7938926261462367 0.0 2.0999999999999996
-2.4989335335593563 1.2494667667796782 2.0999999999999996
-1.3969463130731183 1.3969463130731183 2.0999999999999996
0.0 1.3969463130731183 2.0999999999999996
1.3969463130731183 1.3969463130731183 2.0999999999999996
2.4989335335593563 1.2494667667796782 2.0999999999999996
-1.9755804218550954 1.9755804218550954 2.0999999999999996
-1.2494667667796782 2.4989335335593563 2.0999999999999996
0.0 2.7938926261462367 2.0999999999999996
1.2494667667796782 2.4989335335593563 2.0999999999999996
1.9755804218550954 1.9755804218550954 2.0999999999999996
-1.8770209590785742 -1.8770209590785742 2.799999999999999
-1.1871322893124003 -2.3742645786248007 2.799999999999999
0.0 -2.654508497187474 2.799999999999999
1.1871322893124003 -2.3742645786248007 2.799999999999999
1.8770209590785742 -1.8770209590785742 2.799999999999999
-2.3742645786248007 -1.1871322893124003 2.799999999999999
-1.327254248593737 -1.327254248593737 2.799999999999999
0.0 -1.327254248593737 2.799999999999999
1.327254248593737 -1.327254248593737 2.799999999999999
2.3742645786248007 -1.1871322893124003 2.799999999999999
-2.654508497187474 0.0 2.799999999999999
-1.327254248593737 0.0 2.799999999999999
0.0 0.0 2.799999999999999
1.327254248593737 0.0 2.799999999999999
2.654508497187474 0.0 2.799999999999999
-2.3742645786248007 1.1871322893124003 2.799999999999999
-1.327254248593737 1.327254248593737 2.799999999999999
0.0 1.327254248593737 2.799999999999999
1.327254248593737 1.327254248593737 2.799999999999999
2.3742645786248007 1.1871322893124003 2.799999999999999
-1.8770209590785742 1.8770209590785742 2.799999999999999
-1.1871322893124003 2.3742645786248007 2.799999999999999
0.0 2.654508497187474 2.799999999999999
1.1871322893124003 2.3742645786248007 2.799999999999999
1.8770209590785742 1.8770209590785742 2.799999999999999
-1.7677669529663687 -1.7677669529663687 3.5
-1.118033988749895 -2.23606797749979 3.5
0.0 -2.5 3.5
1.118033988749895 -2.23606797749979 3.5
1.7677669529663687 -1.7677669529663687 3.5
-2.23606797749979 -1.118033988749895 3.5
-1.25 -1.25 3.5
0.0 -1.25 3.5
1.25 -1.25 3.5
2.23606797749979 -1.118033988749895 3.5
-2.5 0.0 3.5
-1.25 0.0 3.5
0.0 0.0 3.5
1.25 0.0 3.5
2.5 0.0 3.5
-2.23606797749979 1.118033988749895 3.5
-1.25 1.25 3.5
0.0 1.25 3.5
1.25 1.25 3.5
2.23606797749979 1.118033988749895 3.5
-1.7677669529663687 1.7677669529663687 3.5
-1.118033988749895 2.23606797749979 3.5
0.0 2.5 3.5
1.118033988749895 2.23606797749979 3.5
1.7677669529663687 1.7677669529663687 3.5
-1.6585129468541633 -1.6585129468541633 4.199999999999999
-1.0489356881873895 -2.097871376374779 4.199999999999999
0.0 -2.3454915028125263 4.199999999999999
1.0489356881873895 -2.097871376374779 4.199999999999999
1.6585129468541633 -1.6585129468541633 4.199999999999999
-2.097871376374779 -1.0489356881873895 4.199999999999999
-1.1727457514062631 -1.1727457514062631 4.199999999999999
0.0 -1.1727457514062631 4.199999999999999
1.1727457514062631 -1.1727457514062631 4.199999999999999
2.097871376374779 -1.0489356881873895 4.199999999999999
-2.3454915028125263 0.0 4.199999999999999
-1.1727457514062631 0.0 4.199999999999999
0.0 0.0 4.199999999999999
1.1727457514062631 0.0 4.199999999999999
2.3454915028125263 0.0 4.199999999999999
-2.097871376374779 1.0489356881873895 4.199999999999999
-1.1727457514062631 1.1727457514062631 4.199999999999999
0.0 1.1727457514062631 4.199999999999999
1.1727457514062631 1.1727457514062631 4.199999999999999
2.097871376374779 1.0489356881873895 4.199999999999999
-1.6585129468541633 1.6585129468541633 4.199999999999999
-1.0489356881873895 2.097871376374779 4.199999999999999
0.0 2.3454915028125263 4.199999999999999
1.0489356881873895 2.097871376374779 4.199999999999999
1.6585129468541633 1.6585129468541633 4.199999999999999
-1.5599534840776421 -1.5599534840776421 4.899999999999999
-0.9866012107201115 -1.973202421440223 4.899999999999999
0.0 -2.2061073738537638 4.899999999999999
0.9866012107201115 -1.973202421440223 4.899999999999999
1.5599534840776421 -1.5599534840776421 4.899999999999999
-1.973202421440223 -0.9866012107201115 4.899999999999999
-1.1030536869268819 -1.1030536869268819 4.899999999999999
0.0 -1.1030536869268819 4.899999999999999
1.1030536869268819 -1.1030536869268819 4.899999999999999
1.973202421440223 -0.9866012107201115 4.899999999999999
-2.2061073738537638 0.0 4.899999999999999
-1.1030536869268819 0.0 4.899999999999999
0.0 0.0 4.899999999999999
1.1030536869268819 0.0 4.899999999999999
2.2061073738537638 0.0 4.899999999999999
-1.973202421440223 0.9866012107201115 4.899999999999999
-1.1030536869268819 1.1030536869268819 4.899999999999999
0.0 1.1030536869268819 4.899999999999999
1.1030536869268819 1.1030536869268819 4.899999999999999
1.973202421440223 0.9866012107201115 4.899999999999999
-1.5599534840776421 1.5599534840776421 4.899999999999999
-0.9866012107201115 1.973202421440223 4.899999999999999
0.0 2.2061073738537638 4.899999999999999
0.9866012107201115 1.973202421440223 4.899999999999999
1.5599534840776421 1.5599534840776421 4.899999999999999
-1.4817362515575265 -1.4817362515575265 5.6
-0.9371322893124001 -1.8742645786248002 5.6
0.0 -2.0954915028125263 5.6
0.9371322893124001 -1.8742645786248002 5.6
1.4817362515575265 -1.4817362515575265 5.6
-1.8742645786248002 -0.9371322893124001 5.6
-1.0477457514062631 -1.0477457514062631 5.6
0.0 -1.0477457514062631 5.6
1.0477457514062631 -1.0477457514062631 5.6
1.8742645786248002 -0.9371322893124001 5.6
-2.0954915028125263 0.0 5.6
-1.0477457514062631 0.0 5.6
0.0 0.0 5.6
1.0477457514062631 0.0 5.6
2.0954915028125263 0.0 5.6
-1.8742645786248002 0.9371322893124001 5.6
-1.0477457514062631 1.0477457514062631 5.6
0.0 1.0477457514062631 5.6
1.0477457514062631 1.0477457514062631 5.6
1.8742645786248002 0.9371322893124001 5.6
-1.4817362515575265 1.4817362515575265 5.6
-0.9371322893124001 1.8742645786248002 5.6
0.0 2.0954915028125263 5.6
0.9371322893124001 1.8742645786248002 5.6
1.4817362515575265 1.4817362515575265 5.6
-1.43151769698439 -1.43151769698439 6.299999999999999
-0.9053712866618848 -1.8107425733237696 6.299999999999999
0.0 -2.024471741852423 6.299999999999999
0.9053712866618848 -1.8107425733237696 6.299999999999999
1.43151769698439 -1.43151769698439 6.299999999999999
-1.8107425733237696 -0.9053712866618848 6.299999999999999
-1.0122358709262116 -1.0122358709262116 6.299999999999999
0.0 -1.0122358709262116 6.299999999999999
1.0122358709262116 -1.0122358709262116 6.299999999999999
1.8107425733237696 -0.9053712866618848 6.299999999999999
-2.024471741852423 0.0 6.299999999999999
-1.0122358709262116 0.0 6.299999999999999
0.0 0.0 6.299999999999999
1.0122358709262116 0.0 6.299999999999999
2.024471741852423 0.0 6.299999999999999
-1.8107425733237696 0.9053712866618848 6.299999999999999
-1.0122358709262116 1.0122358709262116 6.299999999999999
0.0 1.0122358709262116 6.299999999999999
1.0122358709262116 1.0122358709262116 6.299999999999999
1.8107425733237696 0.9053712866618848 6.299999999999999
-1.43151769698439 1.43151769698439 6.299999999999999
-0.9053712866618848 1.8107425733237696 6.299999999999999
0.0 2.024471741852423 6.299999999999999
0.9053712866618848 1.8107425733237696 6.299999999999999
1.43151769698439 1.43151769698439 6.299999999999999
-1.414213562373095 -1.414213562373095 7.0
-0.8944271909999159 -1.7888543819998317 7.0
0.0 -2.0 7.0
0.8944271909999159 -1.7888543819998317 7.0
1.414213562373095 -1.414213562373095 7.0
-1.7888543819998317 -0.8944271909999159 7.0
-1.0 -1.0 7.0
0.0 -1.0 7.0
1.0 -1.0 7.0
1.7888543819998317 -0.8944271909999159 7.0
-2.0 0.0 7.0
-1.0 0.0 7.0
0.0 0.0 7.0
1.0 0.0 7.0
2.0 0.0 7.0
-1.7888543819998317 0.8944271909999159 7.0
-1.0 1.0 7.0
0.0 1.0 7.0
1.0 1.0 7.0
1.7888543819998317 0.8944271909999159 7.0
-1.414213562373095 1.414213562373095 7.0
-0.8944271909999159 1.7888543819998317 7.0
0.0 2.0 7.0
0.8944271909999159 1.7888543819998317 7.0
1.414213562373095 1.414213562373095 7.0
