# vtk DataFile Version 3.0
Structured hexahedral tube mesh
ASCII
DATASET STRUCTURED_GRID
DIMENSIONS 3 3 9
POINTS 81 float
-1.4142135623730951 -1.4142135623730951 -7.0
0.0 -2.0 -7.0
1.4142135623730951 -1.4142135623730951 -7.0
-2.0 0.0 -7.0
0.0 0.0 -7.0
2.0 0.0 -7.0
-1.4142135623730951 1.4142135623730951 -7.0
0.0 2.0 -7.0
1.4142135623730951 1.4142135623730951 -7.0
-1.5177669529663689 -1.5177669529663689 -5.25
0.0 -2.146446609406726 -5.25
1.5177669529663689 -1.5177669529663689 -5.25
-2.146446609406726 0.0 -5.25
0.0 0.0 -5.25
2.146446609406726 0.0 -5.25
-1.5177669529663689 1.5177669529663689 -5.25
0.0 2.146446609406726 -5.25
1.5177669529663689 1.5177669529663689 -5.25
-1.7677669529663689 -1.7677669529663689 -3.5
0.0 -2.5 -3.5
1.7677669529663689 -1.7677669529663689 -3.5
-2.5 0.0 -3.5
0.0 0.0 -3.5
2.5 0.0 -3.5
-1.7677669529663689 1.7677669529663689 -3.5
0.0 2.5 -3.5
1.7677669529663689 1.7677669529663689 -3.5
-2.017766952966369 -2.017766952966369 -1.75
0.0 -2.853553390593274 -1.75
2.017766952966369 -2.017766952966369 -1.75
-2.853553390593274 0.0 -1.75
0.0 0.0 -1.75
2.853553390593274 0.0 -1.75
-2.017766952966369 2.017766952966369 -1.75
0.0 2.853553390593274 -1.75
2.017766952966369 2.017766952966369 -1.75
-2.121320343559643 -2.121320343559643 0.0
0.0 -3.0 0.0
2.121320343559643 -2.121320343559643 0.0
-3.0 0.0 0.0
0.0 0.0 0.0
3.0 0.0 0.0
-2.121320343559643 2.121320343559643 0.0
0.0 3.0 0.0
2.121320343559643 2.121320343559643 0.0
-2.017766952966369 -2.017766952966369 1.75
0.0 -2.853553390593274 1.75
2.017766952966369 -2.017766952966369 1.75
-2.853553390593274 0.0 1.75
0.0 0.0 1.75
2.853553390593274 0.0 1.75
-2.017766952966369 2.017766952966369 1.75
0.0 2.853553390593274 1.75
2.017766952966369 2.017766952966369 1.75
-1.7677669529663689 -1.7677669529663689 3.5
0.0 -2.5 3.5
1.7677669529663689 -1.7677669529663689 3.5
-2.5 0.0 3.5
0.0 0.0 3.5
2.5 0.0 3.5
-1.7677669529663689 1.7677669529663689 3.5
0.0 2.5 3.5
1.7677669529663689 1.7677669529663689 3.5
-1.5177669529663689 -1.5177669529663689 5.25
0.0 -2.146446609406726 5.25
1.5177669529663689 -1.5177669529663689 5.25
-2.146446609406726 0.0 5.25
0.0 0.0 5.25
2.146446609406726 0.0 5.25
-1.5177669529663689 1.5177669529663689 5.25
0.0 2.146446609406726 5.25
1.5177669529663689 1.5177669529663689 5.25
-1.4142135623730951 -1.4142135623730951 7.0
0.0 -2.0 7.0
1.4142135623730951 -1.4142135623730951 7.0
-2.0 0.0 7.0
0.0 0.0 7.0
2.0 0.0 7.0
-1.4142135623730951 1.4142135623730951 7.0
0.0 2.0 7.0
1.4142135623730951 1.4142135623730951 7.0
