# vtk DataFile Version 3.0
Structured hexahedral tube mesh
ASCII
DATASET STRUCTURED_GRID
DIMENSIONS 5 5 17
POINTS 425 float
-1.4142135623730951 -1.4142135623730951 -7.0
-0.7071067811865476 -1.8708286933869707 -7.0
0.0 -2.0 -7.0
0.7071067811865476 -1.8708286933869707 -7.0
1.4142135623730951 -1.4142135623730951 -7.0
-1.8708286933869707 -0.7071067811865476 -7.0
-0.9354143466934853 -0.9354143466934853 -7.0
0.0 -1.0 -7.0
0.9354143466934853 -0.9354143466934853 -7.0
1.8708286933869707 -0.7071067811865476 -7.0
-2.0 0.0 -7.0
-1.0 0.0 -7.0
0.0 0.0 -7.0
1.0 0.0 -7.0
2.0 0.0 -7.0
-1.8708286933869707 0.7071067811865476 -7.0
-0.9354143466934853 0.9354143466934853 -7.0
0.0 1.0 -7.0
0.9354143466934853 0.9354143466934853 -7.0
1.8708286933869707 0.7071067811865476 -7.0
-1.4142135623730951 1.4142135623730951 -7.0
-0.7071067811865476 1.8708286933869707 -7.0
0.0 2.0 -7.0
0.7071067811865476 1.8708286933869707 -7.0
1.4142135623730951 1.4142135623730951 -7.0
-1.4411262117472747 -1.4411262117472747 -6.125
-0.7205631058736374 -1.9064307820699493 -6.125
0.0 -2.0380602337443565 -6.125
0.7205631058736374 -1.9064307820699493 -6.125
1.4411262117472747 -1.4411262117472747 -6.125
-1.9064307820699493 -0.7205631058736374 -6.125
-0.9532153910349747 -0.9532153910349747 -6.125
0.0 -1.0190301168721783 -6.125
0.9532153910349747 -0.9532153910349747 -6.125
1.9064307820699493 -0.7205631058736374 -6.125
-2.0380602337443565 0.0 -6.125
-1.0190301168721783 0.0 -6.125
0.0 0.0 -6.125
1.0190301168721783 0.0 -6.125
2.0380602337443565 0.0 -6.125
-1.9064307820699493 0.7205631058736374 -6.125
-0.9532153910349747 0.9532153910349747 -6.125
0.0 1.0190301168721783 -6.125
0.9532153910349747 0.9532153910349747 -6.125
1.9064307820699493 0.7205631058736374 -6.125
-1.4411262117472747 1.4411262117472747 -6.125
-0.7205631058736374 1.9064307820699493 -6.125
0.0 2.0380602337443565 -6.125
0.7205631058736374 1.9064307820699493 -6.125
1.4411262117472747 1.4411262117472747 -6.125
-1.5177669529663689 -1.5177669529663689 -5.25
-0.7588834764831844 -2.0078169528506393 -5.25
0.0 -2.146446609406726 -5.25
0.7588834764831844 -2.0078169528506393 -5.25
1.5177669529663689 -1.5177669529663689 -5.25
-2.0078169528506393 -0.7588834764831844 -5.25
-1.0039084764253197 -1.0039084764253197 -5.25
0.0 -1.073223304703363 -5.25
1.0039084764253197 -1.0039084764253197 -5.25
2.0078169528506393 -0.7588834764831844 -5.25
-2.146446609406726 0.0 -5.25
-1.073223304703363 0.0 -5.25
0.0 0.0 -5.25
1.073223304703363 0.0 -5.25
2.146446609406726 0.0 -5.25
-2.0078169528506393 0.7588834764831844 -5.25
-1.0039084764253197 1.0039084764253197 -5.25
0.0 1.073223304703363 -5.25
1.0039084764253197 1.0039084764253197 -5.25
2.0078169528506393 0.7588834764831844 -5.25
-1.5177669529663689 1.5177669529663689 -5.25
-0.7588834764831844 2.0078169528506393 -5.25
0.0 2.146446609406726 -5.25
0.7588834764831844 2.0078169528506393 -5.25
1.5177669529663689 1.5177669529663689 -5.25
-1.6324679279298198 -1.6324679279298198 -4.375
-0.8162339639649099 -2.159552080295608 -4.375
0.0 -2.308658283817455 -4.375
0.8162339639649099 -2.159552080295608 -4.375
1.6324679279298198 -1.6324679279298198 -4.375
-2.159552080295608 -0.8162339639649099 -4.375
-1.079776040147804 -1.079776040147804 -4.375
0.0 -1.1543291419087276 -4.375
1.079776040147804 -1.079776040147804 -4.375
2.159552080295608 -0.8162339639649099 -4.375
-2.308658283817455 0.0 -4.375
-1.1543291419087276 0.0 -4.375
0.0 0.0 -4.375
1.1543291419087276 0.0 -4.375
2.308658283817455 0.0 -4.375
-2.159552080295608 0.8162339639649099 -4.375
-1.079776040147804 1.079776040147804 -4.375
0.0 1.1543291419087276 -4.375
1.079776040147804 1.079776040147804 -4.375
2.159552080295608 0.8162339639649099 -4.375
-1.6324679279298198 1.6324679279298198 -4.375
-0.8162339639649099 2.159552080295608 -4.375
0.0 2.308658283817455 -4.375
0.8162339639649099 2.159552080295608 -4.375
1.6324679279298198 1.6324679279298198 -4.375
-1.7677669529663689 -1.7677669529663689 -3.5
-0.8838834764831844 -2.3385358667337135 -3.5
0.0 -2.5 -3.5
0.8838834764831844 -2.3385358667337135 -3.5
1.7677669529663689 -1.7677669529663689 -3.5
-2.3385358667337135 -0.8838834764831844 -3.5
-1.1692679333668567 -1.1692679333668567 -3.5
0.0 -1.25 -3.5
1.1692679333668567 -1.1692679333668567 -3.5
2.3385358667337135 -0.8838834764831844 -3.5
-2.5 0.0 -3.5
-1.25 0.0 -3.5
0.0 0.0 -3.5
1.25 0.0 -3.5
2.5 0.0 -3.5
-2.3385358667337135 0.8838834764831844 -3.5
-1.1692679333668567 1.1692679333668567 -3.5
0.0 1.25 -3.5
1.1692679333668567 1.1692679333668567 -3.5
2.3385358667337135 0.8838834764831844 -3.5
-1.7677669529663689 1.7677669529663689 -3.5
-0.8838834764831844 2.3385358667337135 -3.5
0.0 2.5 -3.5
0.8838834764831844 2.3385358667337135 -3.5
1.7677669529663689 1.7677669529663689 -3.5
-1.9030659780029182 -1.9030659780029182 -2.625
-0.9515329890014591 -2.517519653171819 -2.625
0.0 -2.691341716182545 -2.625
0.9515329890014591 -2.517519653171819 -2.625
1.9030659780029182 -1.9030659780029182 -2.625
-2.517519653171819 -0.9515329890014591 -2.625
-1.2587598265859095 -1.2587598265859095 -2.625
0.0 -1.3456708580912724 -2.625
1.2587598265859095 -1.2587598265859095 -2.625
2.517519653171819 -0.9515329890014591 -2.625
-2.691341716182545 0.0 -2.625
-1.3456708580912724 0.0 -2.625
0.0 0.0 -2.625
1.3456708580912724 0.0 -2.625
2.691341716182545 0.0 -2.625
-2.517519653171819 0.9515329890014591 -2.625
-1.2587598265859095 1.2587598265859095 -2.625
0.0 1.3456708580912724 -2.625
1.2587598265859095 1.2587598265859095 -2.625
2.517519653171819 0.9515329890014591 -2.625
-1.9030659780029182 1.9030659780029182 -2.625
-0.9515329890014591 2.517519653171819 -2.625
0.0 2.691341716182545 -2.625
0.9515329890014591 2.517519653171819 -2.625
1.9030659780029182 1.9030659780029182 -2.625
-2.017766952966369 -2.017766952966369 -1.75
-1.0088834764831844 -2.6692547806167872 -1.75
0.0 -2.853553390593274 -1.75
1.0088834764831844 -2.6692547806167872 -1.75
2.017766952966369 -2.017766952966369 -1.75
-2.6692547806167872 -1.0088834764831844 -1.75
-1.3346273903083936 -1.3346273903083936 -1.75
0.0 -1.426776695296637 -1.75
1.3346273903083936 -1.3346273903083936 -1.75
2.6692547806167872 -1.0088834764831844 -1.75
-2.853553390593274 0.0 -1.75
-1.426776695296637 0.0 -1.75
0.0 0.0 -1.75
1.426776695296637 0.0 -1.75
2.853553390593274 0.0 -1.75
-2.6692547806167872 1.0088834764831844 -1.75
-1.3346273903083936 1.3346273903083936 -1.75
0.0 1.426776695296637 -1.75
1.3346273903083936 1.3346273903083936 -1.75
2.6692547806167872 1.0088834764831844 -1.75
-2.017766952966369 2.017766952966369 -1.75
-1.0088834764831844 2.6692547806167872 -1.75
0.0 2.853553390593274 -1.75
1.0088834764831844 2.6692547806167872 -1.75
2.017766952966369 2.017766952966369 -1.75
-2.0944076941854632 -2.0944076941854632 -0.875
-1.0472038470927316 -2.7706409513974775 -0.875
0.0 -2.9619397662556435 -0.875
1.0472038470927316 -2.7706409513974775 -0.875
2.0944076941854632 -2.0944076941854632 -0.875
-2.7706409513974775 -1.0472038470927316 -0.875
-1.3853204756987387 -1.3853204756987387 -0.875
0.0 -1.4809698831278217 -0.875
1.3853204756987387 -1.3853204756987387 -0.875
2.7706409513974775 -1.0472038470927316 -0.875
-2.9619397662556435 0.0 -0.875
-1.4809698831278217 0.0 -0.875
0.0 0.0 -0.875
1.4809698831278217 0.0 -0.875
2.9619397662556435 0.0 -0.875
-2.7706409513974775 1.0472038470927316 -0.875
-1.3853204756987387 1.3853204756987387 -0.875
0.0 1.4809698831278217 -0.875
1.3853204756987387 1.3853204756987387 -0.875
2.7706409513974775 1.0472038470927316 -0.875
-2.0944076941854632 2.0944076941854632 -0.875
-1.0472038470927316 2.7706409513974775 -0.875
0.0 2.9619397662556435 -0.875
1.0472038470927316 2.7706409513974775 -0.875
2.0944076941854632 2.0944076941854632 -0.875
-2.121320343559643 -2.121320343559643 0.0
-1.0606601717798214 -2.806243040080456 0.0
0.0 -3.0 0.0
1.0606601717798214 -2.806243040080456 0.0
2.121320343559643 -2.121320343559643 0.0
-2.806243040080456 -1.0606601717798214 0.0
-1.403121520040228 -1.403121520040228 0.0
0.0 -1.5 0.0
1.403121520040228 -1.403121520040228 0.0
2.806243040080456 -1.0606601717798214 0.0
-3.0 0.0 0.0
-1.5 0.0 0.0
0.0 0.0 0.0
1.5 0.0 0.0
3.0 0.0 0.0
-2.806243040080456 1.0606601717798214 0.0
-1.403121520040228 1.403121520040228 0.0
0.0 1.5 0.0
1.403121520040228 1.403121520040228 0.0
2.806243040080456 1.0606601717798214 0.0
-2.121320343559643 2.121320343559643 0.0
-1.0606601717798214 2.806243040080456 0.0
0.0 3.0 0.0
1.0606601717798214 2.806243040080456 0.0
2.121320343559643 2.121320343559643 0.0
-2.0944076941854632 -2.0944076941854632 0.875
-1.0472038470927316 -2.7706409513974775 0.875
0.0 -2.9619397662556435 0.875
1.0472038470927316 -2.7706409513974775 0.875
2.0944076941854632 -2.0944076941854632 0.875
-2.7706409513974775 -1.0472038470927316 0.875
-1.3853204756987387 -1.3853204756987387 0.875
0.0 -1.4809698831278217 0.875
1.3853204756987387 -1.3853204756987387 0.875
2.7706409513974775 -1.0472038470927316 0.875
-2.9619397662556435 0.0 0.875
-1.4809698831278217 0.0 0.875
0.0 0.0 0.875
1.4809698831278217 0.0 0.875
2.9619397662556435 0.0 0.875
-2.7706409513974775 1.0472038470927316 0.875
-1.3853204756987387 1.3853204756987387 0.875
0.0 1.4809698831278217 0.875
1.3853204756987387 1.3853204756987387 0.875
2.7706409513974775 1.0472038470927316 0.875
-2.0944076941854632 2.0944076941854632 0.875
-1.0472038470927316 2.7706409513974775 0.875
0.0 2.9619397662556435 0.875
1.0472038470927316 2.7706409513974775 0.875
2.0944076941854632 2.0944076941854632 0.875
-2.017766952966369 -2.017766952966369 1.75
-1.0088834764831844 -2.6692547806167872 1.75
0.0 -2.853553390593274 1.75
1.0088834764831844 -2.6692547806167872 1.75
2.017766952966369 -2.017766952966369 1.75
-2.6692547806167872 -1.0088834764831844 1.75
-1.3346273903083936 -1.3346273903083936 1.75
0.0 -1.426776695296637 1.75
1.3346273903083936 -1.3346273903083936 1.75
2.6692547806167872 -1.0088834764831844 1.75
-2.853553390593274 0.0 1.75
-1.426776695296637 0.0 1.75
0.0 0.0 1.75
1.426776695296637 0.0 1.75
2.853553390593274 0.0 1.75
-2.6692547806167872 1.0088834764831844 1.75
-1.3346273903083936 1.3346273903083936 1.75
0.0 1.426776695296637 1.75
1.3346273903083936 1.3346273903083936 1.75
2.6692547806167872 1.0088834764831844 1.75
-2.017766952966369 2.017766952966369 1.75
-1.0088834764831844 2.6692547806167872 1.75
0.0 2.853553390593274 1.75
1.0088834764831844 2.6692547806167872 1.75
2.017766952966369 2.017766952966369 1.75
-1.9030659780029182 -1.9030659780029182 2.625
-0.9515329890014591 -2.517519653171819 2.625
0.0 -2.691341716182545 2.625
0.9515329890014591 -2.517519653171819 2.625
1.9030659780029182 -1.9030659780029182 2.625
-2.517519653171819 -0.9515329890014591 2.625
-1.2587598265859095 -1.2587598265859095 2.625
0.0 -1.3456708580912724 2.625
1.2587598265859095 -1.2587598265859095 2.625
2.517519653171819 -0.9515329890014591 2.625
-2.691341716182545 0.0 2.625
-1.3456708580912724 0.0 2.625
0.0 0.0 2.625
1.3456708580912724 0.0 2.625
2.691341716182545 0.0 2.625
-2.517519653171819 0.9515329890014591 2.625
-1.2587598265859095 1.2587598265859095 2.625
0.0 1.3456708580912724 2.625
1.2587598265859095 1.2587598265859095 2.625
2.517519653171819 0.9515329890014591 2.625
-1.9030659780029182 1.9030659780029182 2.625
-0.9515329890014591 2.517519653171819 2.625
0.0 2.691341716182545 2.625
0.9515329890014591 2.517519653171819 2.625
1.9030659780029182 1.9030659780029182 2.625
-1.7677669529663689 -1.7677669529663689 3.5
-0.8838834764831844 -2.3385358667337135 3.5
0.0 -2.5 3.5
0.8838834764831844 -2.3385358667337135 3.5
1.7677669529663689 -1.7677669529663689 3.5
-2.3385358667337135 -0.8838834764831844 3.5
-1.1692679333668567 -1.1692679333668567 3.5
0.0 -1.25 3.5
1.1692679333668567 -1.1692679333668567 3.5
2.3385358667337135 -0.8838834764831844 3.5
-2.5 0.0 3.5
-1.25 0.0 3.5
0.0 0.0 3.5
1.25 0.0 3.5
2.5 0.0 3.5
-2.3385358667337135 0.8838834764831844 3.5
-1.1692679333668567 1.1692679333668567 3.5
0.0 1.25 3.5
1.1692679333668567 1.1692679333668567 3.5
2.3385358667337135 0.8838834764831844 3.5
-1.7677669529663689 1.7677669529663689 3.5
-0.8838834764831844 2.3385358667337135 3.5
0.0 2.5 3.5
0.8838834764831844 2.3385358667337135 3.5
1.7677669529663689 1.7677669529663689 3.5
-1.6324679279298198 -1.6324679279298198 4.375
-0.8162339639649099 -2.159552080295608 4.375
0.0 -2.308658283817455 4.375
0.8162339639649099 -2.159552080295608 4.375
1.6324679279298198 -1.6324679279298198 4.375
-2.159552080295608 -0.8162339639649099 4.375
-1.079776040147804 -1.079776040147804 4.375
0.0 -1.1543291419087276 4.375
1.079776040147804 -1.079776040147804 4.375
2.159552080295608 -0.8162339639649099 4.375
-2.308658283817455 0.0 4.375
-1.1543291419087276 0.0 4.375
0.0 0.0 4.375
1.1543291419087276 0.0 4.375
2.308658283817455 0.0 4.375
-2.159552080295608 0.8162339639649099 4.375
-1.079776040147804 1.079776040147804 4.375
0.0 1.1543291419087276 4.375
1.079776040147804 1.079776040147804 4.375
2.159552080295608 0.8162339639649099 4.375
-1.6324679279298198 1.6324679279298198 4.375
-0.8162339639649099 2.159552080295608 4.375
0.0 2.308658283817455 4.375
0.8162339639649099 2.159552080295608 4.375
1.6324679279298198 1.6324679279298198 4.375
-1.5177669529663689 -1.5177669529663689 5.25
-0.7588834764831844 -2.0078169528506393 5.25
0.0 -2.146446609406726 5.25
0.7588834764831844 -2.0078169528506393 5.25
1.5177669529663689 -1.5177669529663689 5.25
-2.0078169528506393 -0.7588834764831844 5.25
-1.0039084764253197 -1.0039084764253197 5.25
0.0 -1.073223304703363 5.25
1.0039084764253197 -1.0039084764253197 5.25
2.0078169528506393 -0.7588834764831844 5.25
-2.146446609406726 0.0 5.25
-1.073223304703363 0.0 5.25
0.0 0.0 5.25
1.073223304703363 0.0 5.25
2.146446609406726 0.0 5.25
-2.0078169528506393 0.7588834764831844 5.25
-1.0039084764253197 1.0039084764253197 5.25
0.0 1.073223304703363 5.25
1.0039084764253197 1.0039084764253197 5.25
2.0078169528506393 0.7588834764831844 5.25
-1.5177669529663689 1.5177669529663689 5.25
-0.7588834764831844 2.0078169528506393 5.25
0.0 2.146446609406726 5.25
0.7588834764831844 2.0078169528506393 5.25
1.5177669529663689 1.5177669529663689 5.25
-1.4411262117472747 -1.4411262117472747 6.125
-0.7205631058736374 -1.9064307820699493 6.125
0.0 -2.0380602337443565 6.125
0.7205631058736374 -1.9064307820699493 6.125
1.4411262117472747 -1.4411262117472747 6.125
-1.9064307820699493 -0.7205631058736374 6.125
-0.9532153910349747 -0.9532153910349747 6.125
0.0 -1.0190301168721783 6.125
0.9532153910349747 -0.9532153910349747 6.125
1.9064307820699493 -0.7205631058736374 6.125
-2.0380602337443565 0.0 6.125
-1.0190301168721783 0.0 6.125
0.0 0.0 6.125
1.0190301168721783 0.0 6.125
2.0380602337443565 0.0 6.125
-1.9064307820699493 0.7205631058736374 6.125
-0.9532153910349747 0.9532153910349747 6.125
0.0 1.0190301168721783 6.125
0.9532153910349747 0.9532153910349747 6.125
1.9064307820699493 0.7205631058736374 6.125
-1.4411262117472747 1.4411262117472747 6.125
-0.7205631058736374 1.9064307820699493 6.125
0.0 2.0380602337443565 6.125
0.7205631058736374 1.9064307820699493 6.125
1.4411262117472747 1.4411262117472747 6.125
-1.4142135623730951 -1.4142135623730951 7.0
-0.7071067811865476 -1.8708286933869707 7.0
0.0 -2.0 7.0
0.7071067811865476 -1.8708286933869707 7.0
1.4142135623730951 -1.4142135623730951 7.0
-1.8708286933869707 -0.7071067811865476 7.0
-0.9354143466934853 -0.9354143466934853 7.0
0.0 -1.0 7.0
0.9354143466934853 -0.9354143466934853 7.0
1.8708286933869707 -0.7071067811865476 7.0
-2.0 0.0 7.0
-1.0 0.0 7.0
0.0 0.0 7.0
1.0 0.0 7.0
2.0 0.0 7.0
-1.8708286933869707 0.7071067811865476 7.0
-0.9354143466934853 0.9354143466934853 7.0
0.0 1.0 7.0
0.9354143466934853 0.9354143466934853 7.0
1.8708286933869707 0.7071067811865476 7.0
-1.4142135623730951 1.4142135623730951 7.0
-0.7071067811865476 1.8708286933869707 7.0
0.0 2.0 7.0
0.7071067811865476 1.8708286933869707 7.0
1.4142135623730951 1.4142135623730951 7.0
